<?xml version="1.0" encoding="UTF-8" standalone="no"?>
<svg
   xmlns:dc="http://purl.org/dc/elements/1.1/"
   xmlns:cc="http://creativecommons.org/ns#"
   xmlns:rdf="http://www.w3.org/1999/02/22-rdf-syntax-ns#"
   xmlns:svg="http://www.w3.org/2000/svg"
   xmlns="http://www.w3.org/2000/svg"
   xmlns:sodipodi="http://sodipodi.sourceforge.net/DTD/sodipodi-0.dtd"
   xmlns:inkscape="http://www.inkscape.org/namespaces/inkscape"
   width="100.00001"
   height="100.00001"
   viewBox="0 0 26.458336 26.458336"
   version="1.1"
   id="svg8"
   inkscape:version="1.0 (4035a4fb49, 2020-05-01)"
   sodipodi:docname="autopilot.svg">
  <defs
     id="defs2" />
  <sodipodi:namedview
     id="base"
     pagecolor="#ffffff"
     bordercolor="#666666"
     borderopacity="1.0"
     inkscape:pageopacity="0.0"
     inkscape:pageshadow="2"
     inkscape:zoom="3.348"
     inkscape:cx="79.99999"
     inkscape:cy="67.99999"
     inkscape:document-units="mm"
     inkscape:current-layer="layer2"
     inkscape:document-rotation="0"
     showgrid="false"
     showguides="true"
     inkscape:guide-bbox="true"
     fit-margin-top="0"
     fit-margin-left="0"
     fit-margin-right="0"
     fit-margin-bottom="0"
     inkscape:pagecheckerboard="true"
     inkscape:window-width="1920"
     inkscape:window-height="1027"
     inkscape:window-x="2732"
     inkscape:window-y="2"
     inkscape:window-maximized="1"
     units="px">
    <sodipodi:guide
       position="112.61387,-253.33482"
       orientation="0,-1"
       id="guide855" />
    <sodipodi:guide
       position="103.74024,-212.5161"
       orientation="0,-1"
       id="guide867" />
  </sodipodi:namedview>
  <metadata
     id="metadata5">
    <rdf:RDF>
      <cc:Work
         rdf:about="">
        <dc:format>image/svg+xml</dc:format>
        <dc:type
           rdf:resource="http://purl.org/dc/dcmitype/StillImage" />
        <dc:title></dc:title>
      </cc:Work>
    </rdf:RDF>
  </metadata>
  <g
     inkscape:groupmode="layer"
     id="layer2"
     inkscape:label="Circles"
     style="display:inline"
     transform="translate(13.229168,13.229168)">
    <circle
       style="fill:#0051fb;fill-opacity:1;stroke:none;stroke-width:0.1;stroke-miterlimit:4;stroke-dasharray:none;stroke-opacity:1;paint-order:fill markers stroke;stop-color:#000000"
       id="path859"
       cx="-3.8682671e-16"
       cy="4.7144509e-16"
       r="13.229168" />
    <circle
       style="fill:none;stroke:#000000;stroke-width:0.1;stroke-opacity:1;paint-order:fill markers stroke;stop-color:#000000"
       id="path873"
       cx="-3.3847339e-16"
       cy="-1.9341336e-16"
       r="7.4039788" />
    <circle
       style="fill:#ffffff;stroke:none;stroke-width:0.1;stroke-miterlimit:4;stroke-dasharray:none;stroke-opacity:1;paint-order:fill markers stroke;stop-color:#000000"
       id="path869"
       cx="2.9012006e-16"
       cy="5.1677634e-16"
       r="8.8194456" />
    <path
       style="fill:#0051fb;fill-opacity:1;stroke-width:1"
       d="m 4.8349443,7.3224633 c -3.2232961,-4.8816423 -1.6116481,-2.4408212 0,0 z M -2.0406545,7.153054 C -2.5313948,7.0709986 -3.3201681,6.6782193 -4.0188297,6.1679987 -4.6599416,5.6998054 -5.4206278,4.977734 -5.9071276,4.3755572 -6.6453499,3.4618044 -7.1033473,2.4246664 -7.0653773,1.7526943 c 0.014907,-0.263779 0.01888,-0.2727416 0.189468,-0.426952 0.4501991,-0.40698086 1.2243243,-0.40995619 2.0848243,-0.00801 0.2518159,0.1176243 0.8666393,0.5129581 1.2331894,0.7929451 0.3478159,0.2656773 1.1286506,1.044867 1.3346502,1.3318383 0.5665216,0.7892031 0.8752841,1.7102739 0.9372977,2.7960611 0.032332,0.5660978 -0.027069,0.7571518 -0.2696617,0.8673131 -0.1523968,0.069203 -0.279394,0.081553 -0.4850451,0.047167 z M 1.6321944,7.1398406 C 1.3315905,7.049834 1.2422695,6.8265433 1.2771485,6.2522702 1.3295013,5.3902902 1.4546583,4.8803766 1.7802084,4.2027069 2.0772281,3.5844266 2.3616958,3.2000234 2.9001358,2.6893417 4.4897932,1.1816367 5.8924983,0.64947189 6.7608527,1.2246457 7.010878,1.3902558 7.0807306,1.5637894 7.0511346,1.9457849 6.95441,3.1941857 5.7850466,4.8311743 4.0592938,6.1340529 3.4357381,6.6048143 2.6703445,7.0049626 2.1657993,7.1239733 1.9074173,7.1849199 1.794019,7.1882933 1.6321944,7.13984 Z M -6.938078,-1.2218562 c -0.042253,-0.010385 -0.098429,-0.036425 -0.1248366,-0.057864 -0.076184,-0.061852 -0.05652,-0.4087083 0.0461,-0.8132654 0.2655519,-1.046836 0.9301033,-2.1130744 1.8545894,-2.9755934 1.1283047,-1.0526751 2.3895476,-1.720093 3.8293891,-2.026415 0.63249317,-0.1345613 1.64710956,-0.1675126 2.28824994,-0.074315 1.74639326,0.2538593 3.13054626,0.9537212 4.34552866,2.1972074 0.9976133,1.0210174 1.7127655,2.349401 1.7858068,3.3171065 0.030893,0.4092986 0.00313,0.4379681 -0.4404587,0.4550448 -0.6740681,0.025949 -1.280956,-0.1165537 -3.0789174,-0.7229546 -0.8726261,-0.2943116 -1.76796,-0.5473786 -2.2662589,-0.6405599 -0.43825445,-0.081953 -1.64715415,-0.1120626 -2.15650621,-0.053711 -0.81768729,0.093675 -1.60984389,0.2995288 -3.45152409,0.8969299 -0.6865996,0.2227183 -1.3815932,0.4322216 -1.5444301,0.4655636 -0.2759896,0.05651 -0.9121992,0.075728 -1.0867345,0.032827 z"
       id="path879"
       sodipodi:nodetypes="ccsssssssssssssssssssssssssssssssssss" />
  </g>
</svg>
